<?xml version="1.0" standalone="no"?>
<!DOCTYPE svg PUBLIC "-//W3C//DTD SVG 20010904//EN"
 "http://www.w3.org/TR/2001/REC-SVG-20010904/DTD/svg10.dtd">
<svg version="1.0" xmlns="http://www.w3.org/2000/svg"
 width="1614.000000pt" height="1545.000000pt" viewBox="0 0 1614.000000 1545.000000"
 preserveAspectRatio="xMidYMid meet">

<g transform="translate(0.000000,1545.000000) scale(0.100000,-0.100000)"
fill="#000000" stroke="none">
<path d="M4209 10225 c-21 -35 -21 -35 -95 -35 l-74 0 0 -114 0 -115 49 -50
c55 -56 86 -115 96 -180 l7 -44 -76 7 -76 7 0 -29 c0 -25 5 -30 29 -35 54 -11
211 -20 211 -12 0 4 -17 51 -37 104 -35 91 -37 102 -38 216 0 117 26 275 45
275 4 0 37 -46 73 -102 90 -141 199 -286 293 -391 151 -168 172 -215 138 -321
-10 -30 -15 -58 -12 -62 15 -14 46 10 87 67 24 33 58 67 74 76 44 22 134 12
205 -24 l57 -28 -3 -85 c-1 -47 -5 -100 -8 -119 l-5 -34 318 5 c348 5 358 7
436 69 l37 30 0 -151 c0 -82 -3 -150 -6 -150 -3 0 -20 11 -36 26 -71 59 -192
99 -313 105 -67 3 -87 -5 -122 -49 -46 -57 -50 -70 -58 -175 -8 -118 -17 -131
-103 -153 -118 -29 -199 0 -303 110 -75 80 -111 95 -140 60 -25 -30 -75 -48
-150 -54 -103 -8 -247 -78 -379 -185 -100 -81 -151 -111 -237 -139 -47 -16
-53 -21 -53 -46 l0 -28 50 13 c75 20 129 49 227 123 49 38 105 76 125 85 40
19 264 84 320 93 l36 6 21 -68 c56 -193 141 -579 141 -646 0 -20 -6 -29 -22
-33 -13 -3 -126 -4 -253 -3 l-230 3 0 87 c0 78 -2 89 -25 112 -13 15 -53 41
-89 58 -81 41 -172 44 -238 10 -39 -21 -43 -21 -52 -4 -8 12 -10 -4 -11 -62
l0 -79 30 41 c54 75 115 88 232 52 98 -30 102 -37 91 -165 -7 -86 -6 -108 5
-112 7 -3 147 -3 310 0 323 5 334 7 415 64 27 19 50 33 52 31 43 -50 52 -174
17 -250 -11 -27 -23 -48 -26 -48 -3 0 -27 15 -53 34 -27 19 -65 41 -86 50 -53
22 -177 46 -235 46 -45 0 -53 -4 -85 -39 -59 -65 -64 -80 -70 -184 -6 -115
-15 -130 -90 -152 -65 -19 -110 -19 -178 1 -46 14 -66 29 -136 100 -46 47 -91
84 -101 84 -10 0 -27 -9 -37 -20 -10 -11 -26 -22 -36 -25 -14 -5 -19 -16 -19
-42 l0 -35 70 7 70 7 60 -56 c68 -63 128 -86 219 -86 113 0 191 34 220 96 l21
44 134 0 c95 0 137 -4 144 -12 7 -9 3 -74 -13 -211 -38 -316 -57 -404 -171
-764 -25 -79 -49 -145 -53 -147 -7 -4 -269 59 -277 66 -1 2 5 51 13 110 15 98
15 111 0 174 -31 123 -60 140 -138 79 -59 -45 -110 -62 -214 -71 -81 -6 -85
-8 -85 -30 0 -23 3 -24 78 -24 98 0 168 20 227 66 25 19 50 32 55 29 21 -13
42 -118 36 -172 -7 -57 -41 -137 -55 -129 -4 3 -31 21 -59 40 -66 44 -143 73
-221 82 -60 6 -61 6 -61 -18 0 -23 6 -26 68 -37 38 -7 90 -23 118 -37 l49 -24
-104 6 c-57 3 -110 8 -118 11 -10 4 -13 -15 -13 -94 l0 -99 223 -33 c261 -38
377 -65 377 -90 0 -86 -305 -522 -517 -739 l-83 -86 0 -132 0 -133 53 5 c88 9
287 44 392 69 621 147 1145 513 1502 1050 202 303 321 604 380 960 25 152 25
625 -1 795 -43 290 -139 569 -283 825 l-57 100 0 135 c-1 117 -4 141 -23 183
-27 57 -39 59 -115 11 -37 -22 -63 -32 -72 -27 -7 4 -44 42 -82 83 -208 229
-482 434 -756 565 -110 53 -358 140 -526 185 -82 22 -92 29 -159 105 -31 35
-60 32 -84 -10z m453 -351 c139 -48 340 -147 468 -231 102 -67 260 -193 309
-246 l23 -26 -63 -46 c-35 -26 -78 -54 -96 -63 -29 -14 -34 -14 -59 2 -26 18
-26 19 -20 95 6 69 5 80 -14 104 -11 14 -51 41 -88 59 -57 28 -77 33 -142 33
-60 0 -83 -4 -114 -23 -21 -13 -39 -22 -40 -20 -2 2 -8 21 -14 43 -8 28 -47
82 -123 170 -125 147 -155 185 -141 185 6 0 57 -16 114 -36z m1038 -814 c51
-14 88 -58 171 -199 126 -218 200 -400 253 -631 26 -113 67 -398 59 -412 -2
-5 -210 -8 -462 -8 l-457 0 0 108 c1 145 -18 204 -75 226 -22 9 -42 22 -44 29
-3 6 -23 107 -45 223 -22 116 -49 237 -60 269 -11 32 -20 64 -20 70 0 8 27 3
81 -16 93 -33 164 -37 250 -13 90 25 101 43 112 180 10 111 12 118 42 150 30
32 37 34 96 34 35 0 80 -5 99 -10z m-797 -1221 c37 -6 67 -15 67 -20 0 -5 -52
-9 -115 -9 -65 0 -115 4 -115 9 0 18 45 41 70 36 14 -2 55 -10 93 -16z m1261
-235 c9 -3 16 -17 16 -30 0 -56 -52 -377 -75 -468 -88 -335 -283 -683 -532
-950 l-63 -67 -152 91 c-84 50 -213 120 -285 156 -73 36 -135 69 -138 73 -2 5
29 109 69 232 61 182 81 262 110 424 38 211 56 352 56 448 0 106 -48 97 500
97 263 0 485 -3 494 -6z m-1237 -1418 c186 -79 413 -211 413 -240 0 -15 -48
-61 -120 -113 -147 -109 -453 -258 -670 -328 -118 -38 -250 -68 -250 -56 0 3
47 60 105 126 126 144 225 283 330 465 98 169 105 180 109 180 2 0 40 -15 83
-34z"/>
<path d="M3535 10179 c-180 -24 -450 -100 -654 -185 -369 -155 -757 -454 -990
-764 -294 -390 -448 -783 -502 -1275 -7 -72 -10 -189 -6 -335 5 -186 11 -247
32 -350 41 -200 72 -303 150 -500 68 -173 73 -190 73 -260 0 -46 6 -90 15
-112 14 -34 14 -40 0 -69 -11 -22 -13 -41 -7 -67 4 -21 7 -67 6 -103 -2 -54 2
-72 21 -100 12 -19 33 -63 46 -99 28 -76 31 -82 94 -132 74 -58 110 -55 222
23 104 72 85 77 227 -49 281 -248 653 -442 1032 -538 107 -27 336 -64 399 -64
l37 0 0 121 0 122 -76 75 c-120 119 -309 360 -421 538 -63 99 -129 231 -120
240 8 8 273 63 308 64 15 0 32 -7 40 -16 23 -28 105 -63 172 -74 77 -12 97 -6
97 26 0 23 -3 24 -58 24 -80 0 -164 42 -212 107 -45 60 -81 93 -101 93 -9 0
-33 -14 -54 -30 -42 -33 -50 -36 -144 -45 -35 -4 -93 -18 -128 -32 -76 -30
-209 -112 -290 -178 -74 -61 -175 -109 -283 -135 -191 -47 -342 -113 -474
-210 -38 -27 -77 -50 -87 -50 -21 0 -94 62 -111 94 -6 11 -10 37 -10 57 1 29
-6 47 -33 79 -33 40 -35 46 -29 92 4 31 2 64 -6 88 -11 34 -11 42 4 64 20 31
20 57 1 120 -20 65 -19 93 5 141 10 22 22 53 25 68 10 48 41 54 147 24 273
-77 629 -88 884 -27 87 20 117 41 94 65 -8 8 -62 30 -120 50 -200 70 -372 168
-488 279 -84 81 -188 236 -158 236 2 0 127 -18 278 -40 150 -22 290 -40 311
-40 45 0 46 8 11 92 -55 132 -67 267 -35 401 21 89 37 113 55 83 77 -128 267
-392 306 -426 3 -3 40 -43 81 -91 96 -107 118 -159 100 -233 -24 -101 -24
-106 -8 -106 15 0 42 29 101 105 36 47 85 68 140 60 65 -10 131 -34 155 -56
20 -19 21 -27 16 -120 -3 -55 -6 -105 -8 -112 -1 -8 17 -13 61 -15 l62 -3 0
29 c0 25 -5 30 -31 36 l-32 6 7 89 7 88 -42 37 c-86 73 -209 95 -309 56 l-51
-20 -33 72 -33 73 71 20 c95 28 187 77 326 172 102 70 115 82 118 111 2 18 -1
32 -6 32 -15 0 -130 -77 -194 -131 -33 -27 -86 -63 -118 -79 -76 -38 -239 -80
-265 -68 -24 11 -292 360 -351 456 -75 123 -122 120 -165 -10 -21 -63 -24 -91
-23 -208 1 -120 4 -143 27 -209 l27 -74 -57 6 c-91 9 -134 59 -103 117 9 17 8
32 -6 70 -17 47 -17 51 1 90 17 39 18 43 2 94 -24 76 -21 112 15 193 31 68 35
73 65 73 17 0 73 -11 125 -25 150 -40 277 -55 468 -55 230 0 445 33 479 74 16
20 1 29 -114 71 -131 47 -282 121 -377 185 -113 75 -249 231 -284 324 -7 17
-4 19 32 13 363 -61 585 -90 597 -78 7 7 -1 38 -21 90 -45 112 -55 170 -49
275 5 109 34 237 50 230 7 -3 32 -37 56 -77 25 -40 76 -116 115 -171 l71 -98
3 40 c3 36 -4 49 -62 127 -36 48 -82 114 -102 147 -58 96 -104 99 -143 9 -49
-115 -52 -309 -7 -441 14 -41 26 -77 26 -79 0 -10 -105 10 -126 24 -45 29 -59
62 -47 107 9 33 8 49 -5 85 -15 41 -15 45 2 78 18 32 18 38 3 92 -27 103 -28
119 -6 147 11 14 23 44 27 68 5 31 14 46 33 57 23 13 35 11 122 -13 77 -22
246 -56 280 -56 4 0 7 14 7 30 0 17 -1 30 -2 30 -24 1 -256 44 -292 55 -103
31 -174 9 -196 -62 -7 -21 -27 -62 -44 -91 -34 -57 -26 -55 -119 -31 -46 12
-47 8 40 183 142 283 342 560 542 749 l71 67 0 110 0 110 -62 -1 c-35 -1 -94
-6 -133 -10z m-84 -216 c-6 -10 -44 -56 -86 -103 -166 -185 -262 -329 -410
-615 -48 -93 -94 -175 -103 -182 -11 -9 -25 -7 -68 12 -129 57 -426 238 -469
285 l-20 22 45 39 c305 270 599 426 995 529 133 35 128 34 116 13z m-1249
-777 c47 -36 470 -279 526 -303 18 -7 35 -20 38 -28 3 -7 -13 -74 -35 -147
-40 -133 -71 -282 -111 -543 -29 -190 -32 -199 -81 -220 -46 -21 -79 -58 -79
-89 0 -46 -1 -46 -446 -46 -350 0 -424 2 -433 14 -13 16 5 182 40 366 47 243
167 531 311 745 80 119 207 285 218 285 4 0 27 -15 52 -34z m883 -427 c44 -12
85 -26 92 -31 33 -25 37 -238 4 -238 -9 0 -76 11 -150 25 -74 14 -136 25 -138
25 -9 0 0 45 28 130 35 106 45 122 68 116 9 -2 52 -14 96 -27z m-201 -425 c98
-156 310 -309 569 -415 40 -16 53 -25 43 -31 -26 -15 -261 -30 -376 -25 -162
8 -311 31 -325 50 -8 11 -4 71 16 238 14 123 27 225 28 227 5 10 20 -5 45 -44z
m-469 -732 c9 -6 21 -322 12 -322 -2 0 -73 13 -158 30 -177 34 -202 36 -223
14 -23 -22 -20 -51 12 -119 61 -128 223 -293 356 -363 28 -14 107 -52 175 -82
69 -31 126 -61 128 -67 6 -17 -110 -27 -317 -27 -175 0 -194 2 -365 37 -259
54 -252 52 -274 95 -27 54 -88 231 -117 341 -36 138 -77 440 -63 457 9 11 86
14 418 14 223 0 411 -4 416 -8z m555 -1479 c109 -203 337 -521 454 -632 20
-19 36 -38 36 -42 0 -10 -117 16 -252 56 -192 57 -382 144 -553 253 -107 69
-256 183 -250 192 18 30 460 265 507 269 3 1 30 -43 58 -96z"/>
<path d="M3602 9744 c-12 -8 -22 -23 -22 -34 0 -10 33 -67 72 -127 70 -103 73
-107 76 -76 2 23 -5 45 -26 75 -35 51 -62 103 -62 118 0 10 19 8 73 -7 13 -3
17 2 17 25 0 18 -6 32 -16 36 -29 11 -89 6 -112 -10z"/>
<path d="M4455 9552 c67 -32 127 -93 156 -156 10 -22 19 -34 19 -26 0 29 -38
96 -76 133 -45 45 -75 62 -124 72 -28 5 -24 1 25 -23z"/>
<path d="M8719 9485 c-139 -34 -272 -119 -344 -220 -97 -135 -130 -272 -122
-499 8 -223 44 -324 151 -432 109 -109 219 -144 451 -144 160 0 223 12 331 65
91 44 151 98 213 190 86 129 116 260 109 474 -4 110 -10 151 -32 217 -61 190
-189 310 -371 349 -88 18 -309 18 -386 0z m262 -71 c190 -56 324 -210 364
-418 8 -43 15 -124 15 -181 0 -297 -116 -503 -318 -565 -219 -68 -474 37 -571
235 -54 111 -74 218 -74 390 0 167 19 263 70 357 28 52 124 148 173 173 70 36
233 41 341 9z"/>
<path d="M10197 9490 c-100 -26 -191 -98 -243 -193 -36 -66 -45 -193 -20 -279
33 -115 94 -164 317 -253 147 -60 195 -89 236 -141 24 -32 28 -48 31 -114 8
-171 -90 -270 -268 -270 -67 0 -159 29 -208 66 -40 31 -82 114 -82 164 0 63
-9 80 -41 80 l-29 0 0 -135 0 -135 39 -26 c61 -40 126 -56 256 -61 233 -10
359 47 433 196 22 46 28 72 30 148 5 119 -13 175 -78 246 -55 61 -112 93 -290
167 -158 65 -192 88 -219 142 -40 84 -22 219 37 271 70 63 245 62 369 -2 52
-26 71 -54 87 -123 10 -47 15 -53 39 -56 l27 -3 0 106 c0 106 0 107 -30 135
-47 44 -139 71 -255 75 -55 3 -117 0 -138 -5z"/>
<path d="M12752 9493 l-443 -3 3 -23 c3 -20 9 -22 70 -25 51 -2 68 -7 74 -20
8 -17 25 -1151 17 -1164 -2 -5 -40 -8 -84 -8 -78 0 -79 0 -79 -25 l0 -25 464
0 463 0 32 59 c44 84 42 93 -16 65 -27 -13 -83 -30 -126 -39 -85 -17 -426 -40
-462 -31 -41 10 -47 53 -53 333 -4 239 -3 263 12 269 10 4 122 3 249 -2 l232
-9 10 -85 c7 -63 14 -85 25 -85 12 0 14 32 15 198 2 179 0 197 -15 197 -14 0
-19 -13 -24 -61 -3 -33 -8 -65 -12 -70 -3 -5 -113 -9 -250 -9 l-244 0 2 248 3
247 100 3 c137 4 360 -14 415 -33 24 -8 52 -23 62 -32 10 -9 21 -13 24 -10 11
10 43 135 36 141 -3 3 -17 5 -31 4 -14 -2 -225 -4 -469 -5z"/>
<path d="M7200 9471 c-269 -57 -451 -212 -536 -456 -26 -74 -28 -91 -28 -230
0 -168 14 -239 67 -338 62 -118 199 -220 332 -248 33 -7 125 -12 205 -12 165
0 232 12 368 69 48 20 102 41 121 46 l33 10 -6 136 c-3 75 -3 173 2 217 l7 80
78 3 c74 3 78 4 75 25 -3 22 -3 22 -267 25 -266 2 -291 -1 -291 -34 0 -10 26
-14 112 -16 l113 -3 6 -30 c4 -16 7 -112 8 -212 l1 -183 -58 -29 c-83 -42
-161 -54 -274 -42 -114 11 -190 39 -265 96 -143 108 -215 270 -216 485 0 179
50 314 157 424 105 109 196 150 349 162 217 17 423 -54 441 -151 9 -48 24 -44
30 8 23 172 23 178 6 187 -64 34 -427 41 -570 11z"/>
<path d="M11248 9483 l-208 -3 0 -25 c0 -24 2 -25 70 -25 58 0 71 -3 80 -19 6
-13 10 -216 10 -590 l0 -570 -72 -3 c-67 -3 -73 -5 -76 -25 l-3 -23 261 0 261
0 -3 23 c-3 21 -8 22 -96 25 -90 3 -93 3 -104 30 -12 28 -25 460 -15 486 5 12
16 12 74 -1 46 -10 106 -13 184 -11 107 4 122 7 182 36 142 70 213 217 187
385 -26 170 -149 283 -331 307 -41 5 -101 8 -134 7 -33 -1 -153 -3 -267 -4z
m383 -100 c89 -41 133 -83 171 -161 29 -58 33 -75 32 -142 -2 -128 -63 -227
-160 -261 -54 -19 -249 -18 -289 2 l-30 14 -3 170 c-2 94 0 226 3 294 l7 124
102 -5 c88 -4 112 -9 167 -35z"/>
<path d="M13642 9468 c3 -21 9 -23 65 -26 59 -3 62 -4 72 -34 7 -21 11 -216
11 -594 l0 -563 -82 -3 c-77 -3 -83 -5 -86 -25 l-3 -23 464 0 c360 0 467 3
474 13 25 31 67 117 60 123 -3 4 -33 -5 -64 -19 -104 -46 -144 -52 -368 -52
l-210 0 -15 30 c-13 26 -15 103 -12 570 1 297 5 548 8 558 5 15 19 17 110 17
l104 0 0 25 0 25 -266 0 -265 0 3 -22z"/>
<path d="M4042 9259 c3 -29 10 -34 121 -82 64 -29 116 -56 114 -62 -2 -5 -56
-14 -120 -19 l-117 -9 0 -28 c0 -26 3 -29 33 -29 48 0 225 28 283 45 28 8 57
22 65 31 17 21 5 28 -129 75 -56 21 -136 53 -178 73 l-75 36 3 -31z"/>
<path d="M5077 9151 c-103 -19 -120 -34 -88 -79 61 -86 175 -115 267 -69 56
29 124 97 124 126 0 16 -12 20 -75 30 -93 14 -116 13 -228 -8z"/>
<path d="M3664 8348 c113 -78 121 -85 155 -148 38 -68 58 -63 24 7 -31 66
-106 130 -173 147 -23 6 -23 5 -6 -6z"/>
<path d="M4370 7939 c-14 -6 -54 -14 -89 -17 -55 -6 -65 -10 -73 -31 -7 -21
-2 -30 38 -68 32 -29 65 -48 101 -59 49 -14 57 -14 106 2 59 19 157 107 157
141 0 18 -9 21 -67 27 -38 4 -86 9 -108 11 -22 3 -51 0 -65 -6z m135 -58 c18
-7 14 -12 -29 -40 -53 -33 -89 -38 -131 -19 -28 13 -31 21 -12 35 35 28 128
41 172 24z"/>
<path d="M6722 7804 c-48 -25 -75 -69 -76 -124 -1 -74 16 -96 119 -145 104
-49 119 -63 119 -110 0 -68 -40 -105 -112 -105 -55 0 -99 31 -112 80 -15 55
-30 50 -30 -10 0 -60 19 -76 100 -86 76 -9 131 8 169 51 27 31 31 44 31 90 0
72 -33 110 -127 149 -90 36 -113 59 -113 108 0 76 70 109 156 73 23 -10 40
-25 47 -45 16 -42 27 -38 27 10 0 32 -5 43 -26 57 -37 24 -131 28 -172 7z"/>
<path d="M7735 7797 c-59 -29 -98 -68 -119 -119 -39 -92 -28 -235 23 -298 41
-51 81 -70 158 -77 139 -11 241 47 279 159 25 77 16 200 -19 261 -40 68 -83
90 -186 95 -75 3 -93 0 -136 -21z m199 -31 c67 -39 101 -115 100 -221 0 -66
-5 -89 -27 -131 -58 -113 -190 -135 -287 -48 -50 45 -70 105 -70 206 0 110 25
165 95 210 42 27 129 19 189 -16z"/>
<path d="M8730 7811 c0 -6 15 -11 33 -13 l32 -3 6 -195 c7 -260 21 -286 157
-300 92 -9 149 3 188 41 45 44 54 92 54 288 l0 171 30 0 c17 0 30 5 30 10 0 6
-33 10 -80 10 -47 0 -80 -4 -80 -10 0 -5 13 -10 29 -10 18 0 32 -7 36 -17 5
-10 10 -89 13 -176 5 -194 -5 -235 -71 -268 -50 -26 -145 -22 -186 8 -54 40
-61 71 -61 271 l0 182 30 0 c17 0 30 5 30 10 0 6 -38 10 -95 10 -52 0 -95 -4
-95 -9z"/>
<path d="M9910 7811 c0 -5 12 -11 27 -13 47 -5 52 -31 44 -263 l-6 -210 -30
-6 c-18 -4 3 -7 50 -6 44 0 67 2 50 4 -16 3 -33 10 -37 16 -10 15 -9 366 1
391 6 15 41 -26 183 -207 l175 -225 6 111 c4 62 7 176 7 255 l0 142 30 0 c17
0 30 5 30 10 0 6 -35 10 -85 10 -50 0 -85 -4 -85 -10 0 -5 15 -10 34 -10 23 0
36 -6 42 -17 11 -28 18 -373 7 -373 -9 0 -169 204 -273 347 l-45 62 -62 1
c-35 0 -63 -4 -63 -9z"/>
<path d="M11070 7811 c0 -6 13 -11 29 -11 27 0 30 -4 36 -42 3 -24 5 -131 3
-238 l-3 -195 -35 -5 c-29 -5 -23 -7 35 -13 225 -23 324 12 377 130 16 35 22
68 22 123 1 120 -34 188 -118 233 -36 19 -60 22 -193 25 -106 3 -153 0 -153
-7z m236 -26 c67 -20 126 -72 153 -136 62 -144 20 -287 -94 -319 -45 -13 -148
-10 -162 4 -14 13 -16 436 -2 452 15 18 43 18 105 -1z"/>
<path d="M12190 7810 c0 -5 11 -10 24 -10 13 0 27 -7 30 -16 3 -9 6 -116 6
-239 l0 -224 -32 -4 c-18 -2 51 -5 153 -5 l186 -2 11 24 10 24 -41 -13 c-23
-7 -81 -16 -129 -20 l-88 -7 -10 28 c-6 15 -9 70 -8 123 l3 96 88 3 c97 3 113
-3 120 -46 2 -15 4 9 5 53 0 66 -1 74 -9 47 l-10 -33 -97 3 -97 3 0 100 0 100
93 -3 c50 -1 104 -7 118 -13 30 -11 29 -12 38 19 l7 22 -185 0 c-117 0 -186
-4 -186 -10z"/>
<path d="M13220 7811 c0 -5 12 -11 28 -13 l27 -3 3 -237 2 -237 -32 -4 c-18
-2 17 -4 77 -4 61 0 92 2 70 4 -22 3 -43 10 -47 16 -4 7 -8 58 -8 115 l0 102
28 -6 c15 -3 32 -7 38 -9 7 -2 26 -27 42 -57 17 -29 52 -79 77 -110 l45 -58
73 0 72 1 -40 14 c-43 15 -147 120 -184 186 l-21 37 30 12 c53 22 80 64 80
124 0 62 -24 100 -76 122 -38 16 -284 20 -284 5z m227 -30 c51 -24 76 -59 76
-109 0 -75 -46 -112 -138 -112 l-45 0 0 113 c0 63 3 117 7 120 12 13 58 7 100
-12z"/>
<path d="M14431 7802 c-69 -35 -97 -113 -67 -185 14 -34 26 -43 110 -82 52
-24 99 -53 105 -64 21 -39 13 -90 -19 -123 -29 -28 -35 -30 -86 -26 -64 5
-100 33 -110 85 -10 51 -24 39 -24 -21 0 -51 2 -54 33 -67 48 -21 166 -18 200
4 65 42 86 131 47 195 -16 26 -43 44 -114 77 -75 35 -95 49 -105 73 -18 44 0
96 40 112 57 24 154 -7 161 -51 2 -13 9 -24 16 -27 15 -5 17 51 2 78 -21 40
-130 53 -189 22z"/>
<path d="M2916 7125 c61 -30 93 -63 134 -135 17 -30 28 -44 24 -30 -20 75 -82
148 -150 176 -56 23 -61 16 -8 -11z"/>
<path d="M6620 6585 l0 -345 4068 2 4067 3 3 343 2 342 -4070 0 -4070 0 0
-345z m1040 120 c0 -47 3 -85 6 -85 4 0 26 18 50 40 25 23 53 40 66 40 20 -1
14 -9 -35 -53 l-59 -53 64 -56 c53 -48 59 -57 40 -58 -14 0 -42 18 -71 45 -26
25 -51 45 -55 45 -3 0 -6 -20 -6 -45 0 -33 -4 -45 -15 -45 -13 0 -15 24 -15
155 0 131 2 155 15 155 12 0 15 -16 15 -85z m360 65 c0 -13 -7 -20 -20 -20
-13 0 -20 7 -20 20 0 13 7 20 20 20 13 0 20 -7 20 -20z m820 -135 c0 -87 -4
-155 -9 -155 -5 0 -11 5 -13 10 -2 7 -17 5 -42 -5 -52 -22 -98 -13 -130 25
-31 38 -39 64 -32 104 14 75 105 116 171 78 l35 -21 0 59 c0 33 4 60 10 60 6
0 10 -58 10 -155z m240 0 c0 -131 -2 -155 -15 -155 -13 0 -15 24 -15 155 0
131 2 155 15 155 13 0 15 -24 15 -155z m238 132 c2 -11 -3 -17 -17 -17 -23 0
-35 15 -26 31 10 15 39 6 43 -14z m2202 8 c0 -9 -6 -15 -12 -14 -30 4 -38 -3
-38 -31 0 -25 4 -30 25 -30 31 0 33 -17 3 -22 -22 -3 -23 -8 -26 -100 -2 -78
-6 -98 -17 -98 -12 0 -15 19 -15 100 0 82 -3 100 -15 100 -8 0 -15 5 -15 10 0
6 7 10 15 10 10 0 15 10 15 33 0 18 5 38 12 45 18 18 68 15 68 -3z m2170 -5
c0 -13 -7 -20 -20 -20 -13 0 -20 7 -20 20 0 13 7 20 20 20 13 0 20 -7 20 -20z
m-6705 -15 c47 -46 23 -120 -43 -133 l-32 -7 50 -64 c28 -36 50 -66 50 -68 0
-2 -8 -3 -19 -3 -11 0 -39 27 -72 70 -29 39 -57 70 -61 70 -4 0 -8 -31 -8 -70
0 -56 -3 -70 -15 -70 -13 0 -15 23 -15 150 l0 150 70 0 c62 0 74 -3 95 -25z
m3789 4 c20 -16 26 -29 26 -59 0 -44 -19 -68 -61 -77 -16 -3 -29 -8 -29 -10 0
-3 23 -34 50 -69 46 -58 48 -64 28 -63 -16 0 -39 21 -78 72 l-55 72 -3 -72
c-2 -56 -6 -73 -17 -73 -13 0 -15 25 -15 150 l0 150 64 0 c49 0 69 -5 90 -21z
m2648 -16 c2 -31 7 -39 26 -41 12 -2 22 -7 22 -12 0 -5 -10 -10 -22 -12 -22
-3 -23 -8 -26 -100 -4 -127 -22 -129 -22 -2 0 87 -2 96 -20 101 -11 3 -20 9
-20 13 0 4 9 10 20 13 15 4 20 14 20 41 0 48 18 46 22 -1z m-6019 -73 c15 -16
27 -41 27 -55 0 -25 0 -25 -95 -25 -89 0 -95 -1 -95 -20 0 -12 12 -32 26 -47
21 -21 32 -24 61 -20 20 4 47 16 60 28 15 15 27 19 33 13 7 -7 0 -20 -21 -40
-41 -39 -114 -42 -153 -5 -62 59 -46 169 29 202 38 17 98 2 128 -31z m982 15
c23 -22 25 -32 25 -115 0 -53 -4 -90 -10 -90 -6 0 -10 28 -10 64 0 108 -25
147 -86 132 -35 -9 -54 -55 -54 -131 0 -51 -3 -65 -15 -65 -12 0 -15 19 -15
110 0 91 3 110 15 110 8 0 15 -7 15 -17 0 -14 2 -15 18 -1 39 35 85 36 117 3z
m1284 10 c37 -19 41 -31 41 -131 0 -68 -3 -84 -15 -84 -12 0 -15 15 -15 78 0
88 -16 122 -56 122 -14 0 -36 -11 -49 -25 -22 -21 -25 -33 -25 -100 0 -60 -3
-75 -15 -75 -12 0 -15 19 -15 110 0 91 3 110 15 110 8 0 15 -5 15 -10 0 -6 12
-4 28 4 35 19 56 20 91 1z m409 -5 c26 -16 32 -17 32 -5 0 8 7 15 16 15 14 0
15 -16 12 -125 -3 -119 -4 -126 -29 -151 -33 -33 -92 -41 -141 -21 -41 17 -71
57 -42 57 9 0 27 -9 41 -20 52 -41 143 -9 143 50 0 20 -1 20 -30 5 -58 -30
-136 -10 -159 42 -14 31 -14 89 0 114 14 27 68 59 99 59 14 0 40 -9 58 -20z
m1086 6 c30 -12 66 -64 66 -95 0 -7 -34 -11 -100 -11 -113 0 -123 -8 -71 -61
37 -36 70 -37 111 -3 19 17 35 23 41 17 14 -14 -17 -50 -57 -63 -104 -35 -190
71 -139 170 28 54 87 72 149 46z m730 -25 c26 -27 31 -39 31 -81 0 -40 -5 -54
-29 -79 -35 -36 -74 -46 -121 -31 -49 16 -75 53 -75 107 0 55 12 78 53 104 45
28 101 20 141 -20z m331 29 c4 -6 -7 -15 -24 -21 -43 -15 -51 -35 -51 -123 0
-61 -3 -76 -15 -76 -12 0 -15 19 -15 110 0 91 3 110 15 110 8 0 15 -5 15 -12
0 -8 6 -6 17 5 19 19 48 22 58 7z m329 -13 l23 -23 27 23 c35 30 71 29 101 -2
23 -22 25 -32 25 -115 0 -73 -3 -90 -15 -90 -12 0 -15 16 -15 83 0 72 -3 87
-20 102 -16 15 -26 17 -48 9 -37 -13 -52 -48 -52 -126 0 -54 -3 -68 -15 -68
-12 0 -15 15 -15 78 0 115 -38 155 -95 97 -22 -21 -25 -33 -25 -100 0 -60 -3
-75 -15 -75 -12 0 -15 19 -15 110 0 91 3 110 15 110 8 0 15 -5 15 -10 0 -6 12
-4 28 4 39 22 70 19 96 -7z m557 -3 c18 -16 19 -16 19 -1 0 10 7 17 15 17 12
0 15 -19 15 -110 0 -91 -3 -110 -15 -110 -8 0 -15 6 -15 14 0 11 -9 10 -39 -7
-34 -19 -42 -20 -80 -8 -71 21 -102 102 -65 172 28 56 120 74 165 33z m934 12
c91 -38 84 -185 -11 -216 -105 -35 -190 71 -138 171 15 30 61 58 97 59 10 0
33 -6 52 -14z m430 -11 c23 -22 25 -32 25 -115 0 -49 -4 -90 -9 -90 -4 0 -11
35 -14 78 -3 42 -8 85 -12 95 -9 23 -50 32 -81 18 -32 -14 -44 -48 -44 -127 0
-50 -3 -64 -15 -64 -12 0 -15 19 -15 110 0 91 3 110 15 110 8 0 15 -7 15 -17
0 -14 2 -15 18 -1 39 35 85 36 117 3z m-6455 -95 c0 -91 -3 -110 -15 -110 -12
0 -15 19 -15 110 0 91 3 110 15 110 12 0 15 -19 15 -110z m1290 0 c0 -91 -3
-110 -15 -110 -12 0 -15 19 -15 110 0 91 3 110 15 110 12 0 15 -19 15 -110z
m4370 0 c0 -91 -3 -110 -15 -110 -12 0 -15 19 -15 110 0 91 3 110 15 110 12 0
15 -19 15 -110z"/>
<path d="M8692 6670 c-12 -5 -30 -25 -39 -45 -16 -33 -16 -37 0 -70 27 -57 87
-71 134 -31 35 30 39 95 8 126 -24 24 -72 33 -103 20z"/>
<path d="M6850 6700 l0 -50 49 0 c40 0 53 4 65 22 20 29 20 34 -4 58 -14 14
-33 20 -65 20 l-45 0 0 -50z"/>
<path d="M10650 6700 l0 -50 43 0 c45 0 77 21 77 52 0 27 -35 48 -78 48 l-42
0 0 -50z"/>
<path d="M7283 6670 c-19 -8 -43 -38 -43 -54 0 -3 36 -6 80 -6 44 0 80 4 80 9
0 37 -73 70 -117 51z"/>
<path d="M9971 6654 c-42 -35 -44 -92 -5 -123 88 -70 194 41 115 120 -36 36
-70 37 -110 3z"/>
<path d="M11066 6659 c-47 -37 -35 -49 49 -49 58 0 75 3 75 14 0 20 -48 56
-75 56 -12 0 -34 -9 -49 -21z"/>
<path d="M11773 6668 c-12 -6 -29 -25 -37 -43 -21 -43 -5 -90 36 -111 76 -40
153 38 113 115 -23 45 -67 61 -112 39z"/>
<path d="M12989 6651 c-20 -20 -29 -39 -29 -61 0 -37 47 -90 80 -90 52 0 89
38 90 92 0 28 -7 42 -31 62 -40 34 -74 33 -110 -3z"/>
<path d="M13939 6651 c-20 -20 -29 -39 -29 -61 0 -40 47 -90 85 -90 38 0 85
50 85 90 0 40 -47 90 -85 90 -16 0 -38 -12 -56 -29z"/>
<path d="M3570 6731 c-14 -5 -45 -9 -70 -10 -51 -1 -70 -14 -70 -46 0 -47 118
-124 191 -125 95 0 261 148 194 174 -27 10 -219 16 -245 7z m159 -57 c10 -9
-37 -46 -74 -58 -54 -19 -129 4 -111 33 18 28 161 47 185 25z"/>
</g>
</svg>
