<?xml version="1.0" standalone="no"?>
<!DOCTYPE svg PUBLIC "-//W3C//DTD SVG 20010904//EN"
 "http://www.w3.org/TR/2001/REC-SVG-20010904/DTD/svg10.dtd">
<svg version="1.0" xmlns="http://www.w3.org/2000/svg"
 width="1614.000000pt" height="1545.000000pt" viewBox="0 0 1614.000000 1545.000000"
 preserveAspectRatio="xMidYMid meet">

<g transform="translate(0.000000,1545.000000) scale(0.100000,-0.100000)"
fill="#000000" stroke="none">
<path d="M8535 11843 c-14 -16 -28 -36 -31 -45 -5 -16 -19 -18 -100 -18 l-94
0 0 -144 0 -144 59 -59 c65 -65 105 -136 122 -213 18 -83 18 -82 -153 -55 -27
4 -28 3 -28 -34 0 -23 5 -41 13 -44 31 -12 278 -30 286 -21 5 5 -8 53 -31 114
-55 143 -71 226 -65 330 6 104 47 300 63 300 7 0 68 -84 137 -187 136 -203
228 -323 367 -475 49 -53 100 -117 115 -142 37 -64 43 -135 16 -213 -40 -118
4 -116 95 4 77 103 100 116 194 110 94 -6 181 -38 216 -80 23 -27 25 -36 19
-72 -5 -22 -10 -71 -11 -110 -2 -38 -5 -79 -6 -90 -3 -19 4 -20 166 -23 93 -1
275 1 405 6 228 8 238 9 289 35 30 15 70 41 90 57 l37 31 3 -33 c1 -18 -1
-104 -5 -190 l-8 -158 -45 36 c-97 77 -220 119 -386 130 l-94 7 -41 -42 c-80
-85 -88 -104 -94 -231 -4 -63 -11 -127 -17 -142 -18 -47 -129 -84 -232 -76
-106 9 -168 44 -270 153 -98 106 -116 113 -170 68 -53 -44 -105 -63 -181 -63
-124 -1 -325 -100 -501 -246 -93 -78 -209 -143 -300 -170 -52 -15 -54 -17 -54
-50 0 -42 9 -43 116 -6 84 30 123 53 264 161 47 35 108 75 136 88 43 19 400
123 426 123 16 0 38 -67 94 -285 61 -236 135 -610 127 -633 -11 -27 -59 -32
-337 -32 -271 0 -284 1 -301 20 -17 18 -17 27 -7 84 19 99 16 120 -19 156 -43
42 -152 96 -226 110 -70 14 -145 2 -201 -30 -41 -25 -38 -25 -56 8 -14 25 -15
20 -16 -83 l0 -110 39 55 c22 30 53 63 71 73 67 40 254 9 320 -53 32 -30 32
-32 25 -83 -5 -29 -9 -82 -10 -119 0 -37 -4 -70 -8 -74 -4 -4 -2 -13 4 -21 14
-16 185 -17 549 -3 263 9 285 14 381 81 32 23 61 40 63 38 46 -51 60 -212 27
-299 -34 -90 -32 -89 -93 -43 -29 22 -67 48 -83 56 -79 40 -250 77 -354 77
-33 0 -45 -7 -88 -53 -71 -75 -80 -96 -87 -222 -8 -127 -18 -161 -55 -179 -48
-25 -132 -39 -200 -33 -105 8 -153 35 -262 148 -65 67 -104 99 -119 99 -12 0
-40 -16 -63 -35 -22 -19 -44 -35 -49 -35 -4 0 -8 -19 -8 -41 l0 -42 91 7 92 7
54 -56 c92 -94 203 -134 337 -120 134 13 203 49 239 123 l22 47 155 3 c85 1
165 0 178 -3 29 -7 29 -17 -8 -326 -35 -291 -63 -438 -124 -639 -67 -224 -135
-433 -146 -450 -8 -13 -32 -9 -177 28 -92 24 -170 46 -172 48 -2 2 4 64 14
137 19 145 14 203 -27 300 -33 76 -71 86 -134 34 -87 -73 -150 -95 -291 -104
l-103 -6 0 -34 c0 -32 2 -33 38 -33 20 1 80 5 133 9 103 10 146 26 232 89 55
40 57 39 82 -42 22 -71 19 -174 -5 -240 -30 -80 -37 -82 -101 -34 -90 68 -182
102 -331 123 l-48 6 0 -34 0 -33 88 -16 c87 -16 218 -66 195 -75 -7 -2 -61 0
-120 6 -58 6 -119 11 -135 11 l-28 0 0 -119 0 -119 68 -11 c37 -6 172 -27 300
-46 281 -41 392 -70 392 -101 0 -55 -180 -350 -352 -576 -109 -144 -286 -346
-356 -410 l-52 -46 0 -169 0 -169 93 8 c263 23 672 122 921 224 593 243 1072
632 1426 1159 295 440 462 889 510 1374 13 132 13 504 -1 690 -29 407 -154
813 -371 1206 l-72 130 -1 165 c0 149 -3 171 -23 223 -37 90 -65 93 -164 21
-35 -26 -55 -34 -71 -30 -12 3 -49 38 -82 77 -167 199 -528 493 -785 641 -219
126 -501 234 -891 342 -72 20 -119 52 -144 99 -12 22 -32 41 -49 47 -40 14
-42 13 -71 -17z m538 -453 c312 -107 596 -265 843 -469 110 -89 191 -167 183
-174 -2 -2 -38 -29 -79 -59 -127 -93 -163 -105 -201 -67 -20 20 -21 28 -14
120 l7 100 -36 34 c-20 18 -64 48 -99 64 -120 59 -228 63 -325 11 l-52 -28 -6
26 c-11 57 -46 114 -117 194 -65 74 -190 223 -226 271 -19 24 -8 22 122 -23z
m1296 -1030 c47 -7 75 -18 100 -38 66 -53 276 -425 354 -627 68 -179 127 -398
151 -570 23 -160 45 -329 43 -332 -1 -1 -265 -2 -587 -4 -493 -1 -584 1 -581
12 14 51 12 210 -3 269 -24 92 -44 122 -91 136 -21 6 -42 19 -47 30 -5 10 -33
143 -62 294 -30 151 -65 309 -79 350 -13 41 -23 76 -22 78 1 1 49 -13 107 -33
117 -39 191 -44 289 -21 131 30 156 66 165 241 5 102 10 126 29 156 29 44 95
79 138 73 18 -2 61 -9 96 -14z m-991 -1537 c75 -12 112 -22 112 -30 0 -10 -35
-13 -145 -13 -151 0 -163 4 -128 42 20 22 21 22 161 1z m1622 -308 c14 -16 12
-33 -31 -340 -61 -433 -249 -873 -533 -1248 -85 -112 -264 -314 -275 -310 -3
1 -89 52 -191 113 -102 61 -263 149 -357 196 -129 64 -173 90 -173 103 0 10
31 110 69 222 96 282 105 315 151 559 47 253 66 399 76 568 5 86 11 128 21
138 12 12 109 14 622 14 532 0 610 -2 621 -15z m-1511 -1805 c149 -66 302
-150 407 -225 l66 -47 -54 -55 c-168 -172 -725 -452 -1079 -542 -129 -32 -189
-43 -189 -33 0 4 50 63 111 132 129 144 197 233 296 380 71 107 194 313 239
401 17 35 30 49 45 49 12 0 83 -27 158 -60z"/>
<path d="M7670 11765 c-427 -59 -913 -239 -1254 -462 -441 -289 -739 -586
-989 -989 -147 -235 -289 -554 -346 -774 -104 -398 -134 -692 -113 -1110 9
-172 16 -231 46 -371 53 -244 89 -360 183 -594 l86 -210 2 -105 c1 -74 7 -118
20 -148 17 -41 17 -46 1 -78 -20 -43 -21 -94 -2 -139 11 -26 12 -43 4 -71 -14
-51 -4 -98 29 -148 15 -23 39 -76 54 -119 31 -89 34 -94 111 -158 97 -81 159
-74 298 33 77 59 99 69 122 57 11 -6 58 -46 106 -90 382 -351 942 -636 1464
-743 106 -22 353 -56 411 -56 15 0 17 14 17 156 l0 155 -92 92 c-149 148 -345
396 -503 635 -84 128 -185 312 -185 338 0 8 10 16 23 19 35 8 370 75 376 75 4
0 30 -18 59 -39 57 -43 146 -76 232 -86 73 -8 90 -1 90 39 l0 31 -74 1 c-98 1
-186 41 -242 110 -123 151 -144 163 -202 117 -62 -50 -99 -64 -195 -72 -73 -6
-110 -16 -177 -45 -109 -47 -218 -114 -325 -199 -131 -105 -226 -151 -406
-197 -249 -63 -390 -126 -567 -251 -53 -38 -102 -69 -109 -69 -24 0 -67 27
-104 67 -49 51 -59 73 -59 126 0 37 -6 53 -35 87 -42 51 -51 81 -37 127 8 26
7 46 -4 81 -19 63 -18 85 7 126 l20 35 -20 64 c-35 114 -36 149 -8 199 14 23
28 59 31 79 3 19 16 46 27 58 26 28 48 26 209 -17 211 -57 306 -67 605 -67
240 0 282 3 380 23 155 31 179 39 204 66 l23 24 -24 16 c-12 8 -77 34 -143 56
-143 49 -349 148 -460 221 -143 94 -326 298 -368 413 -9 23 -37 25 398 -38
171 -26 329 -46 353 -46 38 0 42 2 42 24 0 13 -11 49 -25 81 -52 117 -69 201
-69 335 0 99 4 142 22 205 13 44 27 87 33 95 12 18 5 27 142 -180 116 -176
215 -303 363 -467 56 -63 113 -135 126 -161 28 -57 30 -139 5 -200 -52 -129
20 -104 121 42 23 33 47 54 79 68 44 19 54 20 122 9 91 -14 173 -50 197 -86
15 -24 16 -33 5 -88 -7 -34 -11 -82 -10 -107 0 -25 -2 -55 -6 -67 -6 -18 -2
-22 24 -28 18 -4 54 -4 81 0 49 7 50 8 50 41 0 29 -3 34 -24 34 -41 0 -59 27
-53 79 3 25 10 63 15 83 8 29 6 45 -7 70 -35 68 -197 148 -301 148 -27 0 -80
-11 -120 -26 -40 -14 -73 -24 -75 -22 -8 8 -84 172 -82 175 2 2 38 12 80 23
103 26 240 98 417 218 l145 99 3 47 3 46 -53 -31 c-72 -43 -101 -63 -183 -130
-100 -82 -177 -125 -280 -158 -129 -41 -200 -54 -224 -42 -24 13 -377 477
-437 574 -97 159 -154 156 -210 -14 -26 -79 -28 -95 -28 -254 0 -165 1 -173
31 -265 18 -52 31 -95 30 -97 -2 -1 -34 2 -72 8 -103 14 -143 49 -131 113 4
17 9 43 12 58 4 15 -1 40 -10 59 -20 39 -20 76 -1 109 20 35 18 87 -5 155 -11
32 -20 69 -20 83 0 20 49 147 79 202 17 33 55 34 152 6 226 -64 387 -86 644
-86 359 0 667 63 604 125 -8 7 -72 35 -144 60 -271 97 -498 228 -631 363 -101
102 -220 279 -201 298 3 3 38 -2 78 -10 153 -31 557 -88 639 -89 100 -2 97
-10 44 126 -52 129 -67 214 -60 327 6 102 46 290 61 293 6 1 55 -66 110 -149
55 -83 123 -181 150 -218 l50 -68 3 52 c3 51 2 53 -85 170 -48 65 -104 146
-125 178 -65 108 -121 119 -165 32 -35 -69 -52 -153 -59 -284 -7 -129 8 -223
55 -346 l20 -53 -65 6 c-39 4 -79 15 -98 26 -44 27 -71 79 -62 117 17 69 17
83 2 112 -22 42 -20 78 5 119 l21 34 -21 72 c-36 125 -37 152 -8 195 14 20 29
59 32 85 6 39 13 50 36 62 37 20 55 19 125 -5 59 -21 258 -63 347 -74 l47 -6
0 40 c0 22 -5 40 -10 40 -31 0 -305 52 -365 70 -79 23 -126 25 -158 9 -41 -21
-77 -63 -88 -101 -10 -38 -74 -154 -91 -164 -10 -6 -138 25 -152 37 -11 10
143 322 229 464 148 243 349 500 534 678 l101 98 0 140 0 139 -77 -1 c-43 -1
-121 -7 -173 -14z m-109 -282 c-11 -16 -54 -66 -96 -113 -223 -247 -318 -394
-588 -909 -43 -82 -63 -111 -77 -111 -26 0 -280 131 -418 216 -133 82 -262
175 -262 189 0 6 30 38 68 71 307 275 618 456 1003 583 127 42 338 99 372 100
17 1 17 -1 -2 -26z m-1558 -972 c58 -44 573 -340 655 -377 40 -19 52 -29 52
-46 0 -13 -20 -86 -44 -164 -53 -169 -81 -302 -136 -654 -46 -288 -49 -298
-116 -320 -43 -14 -81 -61 -90 -108 -4 -20 -11 -43 -17 -49 -7 -10 -128 -13
-543 -13 -474 0 -534 2 -549 16 -17 18 -17 21 16 259 63 444 195 799 429 1151
103 156 262 355 277 349 7 -2 37 -22 66 -44z m1130 -541 c94 -30 97 -32 107
-68 29 -98 24 -262 -8 -262 -9 0 -97 14 -194 32 -119 21 -178 35 -178 44 0 6
21 76 46 154 l46 143 43 -6 c23 -4 86 -20 138 -37z m-267 -542 c65 -98 190
-219 300 -295 90 -61 268 -155 394 -208 36 -15 69 -30 73 -35 13 -12 -102 -29
-279 -40 -157 -10 -283 -4 -414 19 -30 5 -83 13 -117 16 -101 11 -98 -3 -62
316 17 151 32 280 34 287 8 23 22 12 71 -60z m-591 -915 c13 -13 15 -25 9 -52
-4 -20 -6 -105 -5 -188 3 -144 2 -153 -15 -153 -11 0 -100 16 -199 35 -99 19
-195 35 -212 35 -39 0 -73 -30 -73 -64 0 -109 201 -372 381 -499 73 -51 214
-124 364 -187 157 -66 159 -73 33 -89 -146 -18 -464 -16 -588 4 -189 30 -485
97 -503 113 -25 22 -51 83 -112 267 -65 194 -98 339 -125 550 -11 88 -23 172
-26 186 -3 17 1 32 11 43 15 14 69 16 530 16 467 0 515 -2 530 -17z m681
-1840 c150 -282 367 -590 556 -789 39 -41 68 -77 65 -80 -7 -7 -227 46 -352
86 -307 99 -594 247 -851 442 -130 99 -132 101 -97 126 115 81 381 224 533
286 47 19 86 35 87 36 1 0 27 -48 59 -107z"/>
<path d="M7775 11230 c-34 -13 -48 -37 -40 -67 3 -16 45 -86 93 -158 l87 -130
3 44 c3 36 -3 52 -31 95 -19 29 -47 76 -62 106 l-27 53 47 -8 c26 -3 54 -9 61
-12 10 -4 14 5 14 35 0 38 -1 40 -37 46 -49 8 -83 7 -108 -4z"/>
<path d="M8780 11001 c106 -36 193 -110 240 -205 20 -38 30 -51 30 -37 0 58
-97 183 -172 222 -20 10 -56 21 -80 24 -31 4 -36 3 -18 -4z"/>
<path d="M8310 10610 l0 -38 155 -68 c85 -38 154 -73 152 -79 -3 -8 -192 -32
-279 -34 -25 -1 -28 -5 -28 -37 l0 -37 96 7 c105 7 291 40 339 60 42 18 61 42
46 60 -6 7 -66 33 -134 56 -67 23 -173 66 -234 95 l-113 54 0 -39z"/>
<path d="M9740 10489 c-151 -20 -227 -34 -237 -42 -7 -5 -13 -22 -13 -37 0
-36 71 -103 147 -137 96 -44 194 -19 295 75 51 48 83 96 73 111 -11 18 -198
39 -265 30z"/>
<path d="M7891 9421 c82 -52 111 -85 166 -183 33 -60 34 -61 29 -26 -11 85
-91 189 -178 232 -89 45 -100 30 -17 -23z"/>
<path d="M8710 8940 c-36 -11 -86 -19 -112 -18 -94 3 -106 -50 -27 -124 95
-89 200 -108 306 -54 82 41 173 144 154 175 -5 7 -44 16 -92 21 -46 5 -102 11
-124 14 -25 4 -64 -2 -105 -14z m178 -66 c32 -9 28 -18 -29 -55 -61 -39 -128
-45 -173 -16 -24 16 -26 21 -15 33 34 34 153 55 217 38z"/>
<path d="M6890 7924 c71 -36 140 -106 179 -180 36 -70 41 -52 7 23 -41 88
-127 160 -211 178 -21 4 -13 -2 25 -21z"/>
<path d="M7735 7424 c-27 -7 -76 -14 -107 -14 -49 0 -59 -3 -77 -26 -12 -15
-21 -30 -21 -34 0 -19 92 -101 141 -126 79 -40 145 -38 227 6 72 38 152 120
152 156 0 28 -7 30 -149 44 -119 12 -102 12 -166 -6z m184 -74 c19 -10 -58
-66 -109 -80 -49 -13 -130 11 -130 40 0 9 68 40 111 50 36 8 104 3 128 -10z"/>
<path d="M2540 4735 l0 -485 5530 0 5530 0 0 485 0 485 -5530 0 -5530 0 0
-485z m1502 334 c59 -15 119 -68 153 -134 29 -56 30 -64 30 -184 0 -109 -3
-132 -22 -174 -37 -79 -78 -123 -150 -159 -59 -29 -73 -32 -162 -32 -53 0
-117 6 -144 13 -60 17 -128 77 -159 139 -21 42 -23 61 -23 177 1 111 4 137 22
177 44 96 139 170 242 188 51 9 156 4 213 -11z m4490 0 c59 -15 119 -68 153
-134 29 -56 30 -64 30 -184 0 -109 -3 -132 -22 -174 -37 -79 -78 -123 -150
-159 -59 -29 -73 -32 -162 -32 -53 0 -117 6 -144 13 -60 17 -128 77 -159 139
-21 42 -23 61 -23 177 1 111 4 137 22 177 44 96 139 170 242 188 51 9 156 4
213 -11z m-5257 2 c33 -7 42 -35 30 -99 l-6 -35 -20 32 c-30 49 -77 65 -194
65 -116 1 -156 -15 -219 -85 -62 -68 -80 -120 -80 -224 0 -73 4 -100 23 -143
29 -64 102 -133 160 -150 89 -27 215 -10 243 32 9 13 10 127 2 179 l-7 37 -58
0 c-46 0 -59 3 -59 15 0 13 23 15 145 15 122 0 145 -2 145 -15 0 -11 -11 -15
-40 -15 l-40 0 0 -114 0 -113 -82 -33 c-77 -31 -91 -34 -198 -34 -101 0 -121
3 -160 23 -61 31 -97 67 -128 126 -24 45 -27 61 -27 160 0 98 3 116 26 166 15
31 43 75 64 98 41 45 136 97 205 110 52 10 231 12 275 2z m1495 -7 c50 -20 60
-38 60 -103 0 -39 -4 -51 -15 -51 -16 0 -19 5 -29 52 -12 55 -155 93 -219 59
-59 -32 -64 -145 -8 -188 9 -7 51 -26 94 -44 92 -37 151 -78 172 -118 25 -49
20 -146 -10 -197 -39 -66 -91 -87 -213 -82 -59 2 -109 9 -127 18 -29 15 -30
18 -33 93 -2 61 0 77 11 77 9 0 18 -15 22 -37 4 -21 13 -50 21 -65 38 -73 183
-88 243 -24 35 37 46 100 24 145 -19 37 -40 50 -196 122 -47 21 -74 40 -87 62
-26 43 -35 110 -21 158 14 48 65 107 106 125 42 19 156 17 205 -2z m682 -16
c128 -72 124 -277 -6 -345 -33 -17 -147 -23 -203 -11 l-33 8 0 -118 c0 -160 1
-160 63 -164 29 -2 52 -8 55 -15 3 -10 -29 -13 -137 -13 -119 0 -141 2 -141
15 0 11 11 15 40 15 l40 0 0 303 c0 222 -3 306 -12 315 -7 7 -27 12 -45 12
-18 0 -33 4 -33 10 0 11 157 19 284 14 68 -3 97 -9 128 -26z m768 2 c-13 -47
-17 -49 -57 -30 -29 14 -68 19 -158 22 l-120 3 0 -130 0 -130 130 0 130 0 3
30 c2 17 8 34 13 40 5 5 9 -35 9 -105 0 -71 -4 -110 -9 -104 -5 5 -11 27 -13
49 l-3 40 -130 0 -130 0 -3 -118 c-1 -65 2 -135 8 -157 l11 -40 64 0 c82 0
211 18 252 35 38 16 38 16 16 -30 l-17 -35 -248 0 c-214 0 -248 2 -248 15 0
11 12 15 45 15 l45 0 0 278 c0 152 -3 294 -6 315 -6 35 -8 37 -45 37 -28 0
-39 4 -39 15 0 13 35 15 254 15 l255 0 -9 -30z m490 15 c0 -11 -13 -15 -54
-15 l-54 0 -7 -92 c-4 -51 -5 -189 -3 -306 2 -175 6 -215 18 -223 25 -17 227
-4 288 19 57 22 61 19 35 -27 l-18 -31 -247 0 c-214 0 -248 2 -248 15 0 11 12
15 45 15 l45 0 0 299 c0 165 -3 306 -6 315 -4 10 -18 16 -40 16 -24 0 -34 5
-34 15 0 13 22 15 140 15 118 0 140 -2 140 -15z m1060 -1 c50 -20 60 -38 60
-103 0 -39 -4 -51 -15 -51 -16 0 -19 5 -29 52 -12 55 -155 93 -219 59 -59 -32
-64 -145 -8 -188 9 -7 51 -26 94 -44 92 -37 151 -78 172 -118 25 -49 20 -146
-10 -197 -39 -66 -91 -87 -213 -82 -59 2 -109 9 -127 18 -29 15 -30 18 -33 93
-2 61 0 77 11 77 9 0 18 -15 22 -37 4 -21 13 -50 21 -65 38 -73 183 -88 243
-24 35 37 46 100 24 145 -19 37 -40 50 -196 122 -47 21 -74 40 -87 62 -26 43
-35 110 -21 158 14 48 65 107 106 125 42 19 156 17 205 -2z m1380 1 c0 -11
-11 -15 -40 -15 l-40 0 0 -237 c0 -131 5 -254 10 -274 20 -73 100 -119 206
-120 86 -1 148 29 178 86 20 37 21 55 20 265 -1 265 -4 280 -64 280 -29 0 -40
4 -40 15 0 12 19 15 110 15 91 0 110 -3 110 -15 0 -11 -11 -15 -39 -15 l-40 0
-3 -257 c-3 -277 -5 -290 -62 -351 -47 -53 -89 -64 -215 -61 -105 4 -120 7
-162 31 -78 46 -83 63 -90 359 -4 141 -10 262 -13 268 -4 6 -25 11 -47 11 -28
0 -39 4 -39 15 0 13 21 15 130 15 109 0 130 -2 130 -15z m890 -88 c110 -149
309 -409 332 -432 19 -20 19 -18 16 220 -4 275 -6 285 -68 285 -29 0 -40 4
-40 15 0 12 19 15 115 15 94 0 115 -3 115 -14 0 -10 -14 -16 -42 -18 l-43 -3
-3 -337 c-1 -186 -6 -338 -10 -338 -4 0 -113 136 -242 301 -216 279 -235 299
-241 275 -11 -39 -15 -477 -6 -503 7 -19 16 -23 48 -23 28 0 39 -4 39 -15 0
-12 -18 -15 -106 -15 -80 0 -105 3 -102 13 3 6 20 13 40 15 l35 3 6 196 c14
411 11 433 -59 433 -24 0 -34 5 -34 15 0 12 16 15 88 15 l87 -1 75 -102z
m1077 75 c66 -35 110 -79 140 -140 26 -52 28 -66 28 -173 0 -113 -1 -118 -35
-185 -39 -77 -104 -134 -174 -154 -52 -14 -412 -10 -409 5 2 6 21 11 43 13
l40 3 0 277 c0 152 -3 294 -6 315 -6 36 -8 37 -50 37 -33 0 -44 4 -44 16 0 14
25 15 213 12 198 -3 215 -5 254 -26z m863 -2 c-13 -47 -17 -49 -57 -30 -29 14
-68 19 -158 22 l-120 3 0 -130 0 -130 130 0 130 0 3 30 c2 17 8 34 13 40 5 5
9 -35 9 -105 0 -71 -4 -110 -9 -104 -5 5 -11 27 -13 49 l-3 40 -130 0 -130 0
-3 -118 c-1 -65 2 -135 8 -157 l11 -40 64 0 c82 0 211 18 252 35 38 16 38 16
16 -30 l-17 -35 -248 0 c-214 0 -248 2 -248 15 0 11 12 15 45 15 l45 0 0 278
c0 152 -3 294 -6 315 -6 35 -8 37 -45 37 -28 0 -39 4 -39 15 0 13 35 15 254
15 l255 0 -9 -30z m611 7 c121 -64 120 -248 -2 -315 -27 -15 -49 -33 -49 -40
0 -23 61 -104 144 -190 65 -68 86 -83 117 -88 24 -4 39 -12 39 -21 0 -11 -18
-13 -92 -11 l-92 3 -59 75 c-32 41 -79 111 -105 155 l-48 80 -47 3 -47 3 0
-114 c0 -63 3 -129 6 -146 6 -30 8 -31 60 -31 41 0 54 -4 54 -15 0 -13 -22
-15 -140 -15 -118 0 -140 2 -140 15 0 11 11 15 40 15 l40 0 0 284 c0 156 -3
297 -6 314 -5 27 -11 31 -42 34 -19 2 -37 9 -40 16 -3 9 38 12 181 12 173 0
186 -1 228 -23z m749 7 c50 -20 60 -38 60 -103 0 -39 -4 -51 -15 -51 -16 0
-19 5 -29 52 -12 55 -155 93 -219 59 -59 -32 -64 -145 -8 -188 9 -7 51 -26 94
-44 92 -37 151 -78 172 -118 25 -49 20 -146 -10 -197 -39 -66 -91 -87 -213
-82 -59 2 -109 9 -127 18 -29 15 -30 18 -33 93 -2 61 0 77 11 77 9 0 18 -15
22 -37 4 -21 13 -50 21 -65 38 -73 183 -88 243 -24 35 37 46 100 24 145 -19
37 -40 50 -196 122 -47 21 -74 40 -87 62 -26 43 -35 110 -21 158 14 48 65 107
106 125 42 19 156 17 205 -2z"/>
<path d="M3792 5043 c-13 -3 -45 -26 -72 -51 -66 -64 -84 -127 -78 -271 7
-160 48 -238 153 -287 35 -17 67 -24 110 -24 103 1 171 46 217 145 20 43 23
66 23 165 0 106 -2 120 -28 172 -16 32 -46 72 -67 91 -62 53 -167 77 -258 60z"/>
<path d="M8282 5043 c-13 -3 -45 -26 -72 -51 -66 -64 -84 -127 -78 -271 7
-160 48 -238 153 -287 35 -17 67 -24 110 -24 103 1 171 46 217 145 20 43 23
66 23 165 0 106 -2 120 -28 172 -16 32 -46 72 -67 91 -62 53 -167 77 -258 60z"/>
<path d="M5214 5027 c-2 -7 -3 -78 -2 -157 l3 -145 42 -9 c103 -22 183 19 203
104 20 85 -19 161 -105 201 -47 22 -133 25 -141 6z"/>
<path d="M10838 5044 c-12 -12 -10 -582 2 -605 10 -17 22 -19 108 -19 72 0
107 5 137 19 123 55 168 226 104 397 -28 75 -115 164 -184 188 -58 19 -157 32
-167 20z"/>
<path d="M12358 5044 c-5 -4 -8 -74 -8 -156 l0 -148 68 0 c115 0 176 48 176
138 0 64 -31 114 -88 142 -47 22 -136 37 -148 24z"/>
<path d="M4374 4116 c-9 -24 4 -48 23 -44 12 2 18 12 18 28 0 29 -32 41 -41
16z"/>
<path d="M6161 4116 c-17 -20 -2 -48 23 -44 24 3 34 37 14 49 -18 12 -24 11
-37 -5z"/>
<path d="M9156 4108 c-9 -12 -16 -42 -16 -65 0 -36 -3 -43 -20 -43 -11 0 -20
-7 -20 -15 0 -8 9 -15 20 -15 19 0 20 -7 20 -135 0 -128 1 -135 20 -135 19 0
20 7 20 135 l0 135 30 0 c20 0 30 5 30 15 0 10 -10 15 -30 15 -29 0 -30 2 -30
45 0 46 6 51 48 46 8 -2 12 5 10 16 -5 29 -62 30 -82 1z"/>
<path d="M12191 4116 c-17 -20 -2 -48 23 -44 24 3 34 37 14 49 -18 12 -24 11
-37 -5z"/>
<path d="M3890 3910 c0 -202 1 -210 20 -210 17 0 19 8 22 66 l3 66 75 -66 c50
-44 83 -66 100 -66 26 0 8 19 -124 132 l-30 25 39 34 c22 19 58 51 80 71 38
35 39 38 16 38 -16 0 -48 -22 -93 -61 l-68 -61 0 121 c0 114 -1 121 -20 121
-19 0 -20 -7 -20 -210z"/>
<path d="M5520 4040 c0 -44 -3 -80 -7 -80 -4 0 -17 9 -29 21 -24 23 -88 35
-128 25 -38 -9 -93 -62 -106 -102 -20 -59 -5 -119 40 -164 61 -61 147 -64 208
-8 l22 21 0 -26 c0 -20 5 -27 20 -27 19 0 20 7 20 210 0 203 -1 210 -20 210
-18 0 -20 -7 -20 -80z m-76 -74 c107 -45 101 -204 -9 -235 -110 -30 -195 89
-135 187 19 30 67 61 98 62 7 0 27 -6 46 -14z"/>
<path d="M5850 3910 c0 -180 2 -210 15 -210 13 0 15 30 15 210 0 180 -2 210
-15 210 -13 0 -15 -30 -15 -210z"/>
<path d="M11838 4063 c-3 -55 -4 -58 -30 -61 -39 -5 -37 -32 2 -32 l30 0 0
-135 c0 -113 2 -135 15 -135 13 0 15 22 15 135 l0 135 30 0 c20 0 30 5 30 15
0 10 -10 15 -30 15 l-30 0 0 60 c0 46 -3 60 -15 60 -10 0 -15 -15 -17 -57z"/>
<path d="M2770 3905 c0 -198 1 -205 20 -205 19 0 20 7 20 95 0 73 3 95 14 95
7 0 46 -43 85 -95 59 -76 78 -95 98 -95 24 0 25 1 11 18 -33 38 -128 161 -128
165 0 3 20 10 45 16 73 18 103 67 83 138 -15 54 -56 73 -160 73 l-88 0 0 -205z
m200 138 c25 -32 20 -69 -12 -95 -15 -13 -38 -18 -84 -18 l-64 0 0 70 0 70 69
0 c64 0 71 -2 91 -27z"/>
<path d="M8000 3906 c0 -199 1 -206 20 -206 19 0 20 7 20 95 0 74 3 95 14 95
7 0 47 -43 87 -95 57 -73 79 -95 97 -95 18 0 22 3 15 13 -6 6 -38 48 -72 92
l-63 80 34 9 c58 14 81 30 95 65 19 44 10 91 -23 122 -23 21 -36 24 -125 27
l-99 4 0 -206z m186 156 c15 -10 34 -47 34 -67 0 -9 -11 -27 -25 -40 -21 -22
-33 -25 -90 -25 l-65 0 0 70 0 70 68 0 c37 0 72 -4 78 -8z"/>
<path d="M3382 3993 c-19 -9 -44 -35 -59 -60 -21 -36 -25 -53 -21 -94 11 -115
116 -177 221 -131 53 24 89 68 66 82 -10 7 -20 2 -34 -15 -31 -39 -90 -58
-131 -45 -41 14 -84 63 -84 96 l0 24 136 0 137 0 -6 35 c-16 100 -131 155
-225 108z m123 -27 c28 -12 65 -58 65 -81 0 -3 -52 -5 -115 -5 -63 0 -115 3
-115 6 0 19 38 66 64 78 39 19 58 20 101 2z"/>
<path d="M4776 3985 c-34 -23 -36 -23 -36 -5 0 13 -7 20 -20 20 -19 0 -20 -7
-20 -150 0 -143 1 -150 20 -150 19 0 20 7 20 95 0 109 13 146 60 170 41 21 64
19 97 -9 27 -24 28 -27 31 -140 3 -92 7 -116 18 -116 11 0 14 23 14 121 l0
121 -34 34 c-43 43 -95 46 -150 9z"/>
<path d="M6585 3998 c-11 -6 -30 -20 -42 -31 l-23 -20 0 26 c0 17 -5 27 -15
27 -13 0 -15 -23 -15 -150 0 -127 2 -150 15 -150 12 0 15 16 15 85 0 125 29
180 101 191 71 12 98 -43 99 -193 0 -69 3 -83 16 -83 14 0 15 16 12 126 l-3
126 -33 29 c-35 31 -89 39 -127 17z"/>
<path d="M7110 3992 c-108 -59 -108 -219 0 -275 46 -24 120 -18 161 12 17 13
33 21 35 18 12 -12 -11 -83 -33 -103 -48 -44 -139 -40 -190 8 -11 11 -29 18
-39 16 -15 -3 -13 -7 10 -35 66 -78 229 -65 270 21 23 49 24 346 1 346 -8 0
-15 -9 -15 -20 0 -25 -4 -25 -40 1 -41 31 -115 36 -160 11z m148 -38 c13 -9
30 -32 39 -51 42 -102 -58 -202 -160 -159 -40 16 -77 67 -77 104 0 98 115 160
198 106z"/>
<path d="M8624 4000 c-33 -13 -82 -77 -90 -115 -28 -153 150 -256 261 -150 38
35 43 50 20 59 -9 3 -19 -3 -26 -15 -6 -12 -31 -30 -55 -41 -37 -16 -51 -17
-78 -8 -43 14 -74 48 -82 88 l-6 32 136 0 136 0 0 29 c0 38 -38 92 -80 113
-37 19 -101 23 -136 8z m133 -45 c24 -16 51 -61 41 -70 -3 -3 -55 -4 -116 -3
l-111 3 12 25 c7 13 28 35 47 48 39 26 83 25 127 -3z"/>
<path d="M9570 3988 c-57 -39 -75 -72 -75 -138 0 -50 4 -63 31 -97 76 -94 217
-76 266 35 49 109 -28 222 -150 222 -24 0 -52 -9 -72 -22z m125 -22 c90 -38
100 -177 15 -221 -38 -19 -100 -19 -128 1 -76 53 -64 183 21 219 41 18 50 18
92 1z"/>
<path d="M10136 3989 c-21 -17 -26 -18 -26 -5 0 9 -8 16 -20 16 -19 0 -20 -7
-20 -150 0 -143 1 -150 20 -150 19 0 20 7 20 100 0 71 5 110 15 130 17 33 50
54 66 44 11 -6 29 12 29 29 0 15 -59 6 -84 -14z"/>
<path d="M10560 4003 c-8 -3 -25 -15 -37 -26 l-23 -20 0 21 c0 15 -6 22 -20
22 -19 0 -20 -7 -20 -150 0 -141 1 -150 19 -150 18 0 20 10 23 110 3 104 4
111 30 137 36 36 92 37 119 4 16 -20 19 -41 19 -137 0 -107 1 -114 20 -114 19
0 20 7 20 105 0 101 1 106 29 137 22 25 36 32 66 32 63 0 75 -25 75 -160 0
-107 1 -114 20 -114 19 0 20 7 20 88 -1 122 -12 171 -46 200 -39 34 -107 27
-144 -15 l-26 -29 -31 33 c-30 33 -70 42 -113 26z"/>
<path d="M11271 3988 c-58 -39 -76 -72 -76 -137 1 -63 22 -104 72 -137 41 -27
123 -25 162 4 37 27 41 27 41 2 0 -13 7 -20 20 -20 19 0 20 7 20 150 0 143 -1
150 -20 150 -13 0 -20 -7 -20 -20 0 -26 -8 -25 -37 2 -35 33 -118 37 -162 6z
m123 -22 c107 -45 101 -204 -9 -235 -110 -30 -195 89 -135 187 19 30 67 61 98
62 7 0 27 -6 46 -14z"/>
<path d="M12580 3988 c-57 -39 -75 -72 -75 -138 0 -50 5 -64 31 -97 76 -94
217 -76 266 35 35 79 4 168 -73 207 -43 23 -110 19 -149 -7z m125 -22 c65 -27
93 -112 60 -176 -22 -42 -53 -60 -105 -60 -52 0 -83 18 -105 60 -33 63 -5 148
58 175 41 18 50 18 92 1z"/>
<path d="M13195 3998 c-11 -6 -30 -20 -42 -31 l-23 -20 0 26 c0 17 -5 27 -15
27 -13 0 -15 -23 -15 -150 0 -127 2 -150 15 -150 12 0 15 16 15 85 0 125 29
180 101 191 71 12 97 -42 98 -203 1 -60 4 -73 17 -73 14 0 16 16 13 126 l-4
126 -33 29 c-35 31 -89 39 -127 17z"/>
<path d="M4380 3850 c0 -127 2 -150 15 -150 13 0 15 23 15 150 0 127 -2 150
-15 150 -13 0 -15 -23 -15 -150z"/>
<path d="M6160 3850 c0 -143 1 -150 20 -150 19 0 20 7 20 150 0 143 -1 150
-20 150 -19 0 -20 -7 -20 -150z"/>
<path d="M12190 3850 c0 -143 1 -150 20 -150 19 0 20 7 20 150 0 143 -1 150
-20 150 -19 0 -20 -7 -20 -150z"/>
</g>
</svg>
